<?xml version="1.0" encoding="UTF-8"?>
<svg width="499px" height="198px" viewBox="0 0 499 198" version="1.1" xmlns="http://www.w3.org/2000/svg" xmlns:xlink="http://www.w3.org/1999/xlink">
    <!-- Generator: Sketch 43.1 (39012) - http://www.bohemiancoding.com/sketch -->
    <title>Page 1</title>
    <desc>Created with Sketch.</desc>
    <defs>
        <polygon id="path-1" points="0 197.678261 498.021517 197.678261 498.021517 0 0 0"></polygon>
    </defs>
    <g id="Page-1" stroke="none" stroke-width="1" fill="none" fill-rule="evenodd">
        <g>
            <path d="M0,56.6234783 L34.4805517,56.6234783 L34.4805517,70.7191304 C42.3012414,64.1191304 49.3833103,59.5365217 55.7354483,56.953913 C62.0788966,54.3713043 68.5787586,53.0843478 75.2176552,53.0843478 C88.8343448,53.0843478 100.400276,57.8495652 109.898069,67.3626087 C117.892552,75.4582609 121.881103,87.4234783 121.881103,103.258261 L121.881103,194.136522 L87.7828966,194.136522 L87.7828966,133.91913 C87.7828966,117.510435 87.0442759,106.606087 85.5757241,101.223478 C84.1071724,95.8321739 81.5437241,91.7365217 77.8853793,88.9104348 C74.2357241,86.0930435 69.7171034,84.6843478 64.3468966,84.6843478 C57.3691034,84.6843478 51.3906207,87.0147826 46.3853793,91.6930435 C41.3888276,96.3626087 37.9216552,102.823478 35.9925517,111.066957 C34.9845517,115.362609 34.4805517,124.658261 34.4805517,138.971304 L34.4805517,194.136522 L0,194.136522 L0,56.6234783 Z" id="Fill-1" fill="#000000"></path>
            <mask id="mask-2" fill="white">
                <use xlink:href="#path-1"></use>
            </mask>
            <g id="Clip-4"></g>
            <path d="M151.434621,194.13913 L185.915172,194.13913 L185.915172,56.626087 L151.434621,56.626087 L151.434621,194.13913 Z M168.674897,0 C174.722897,0 179.901931,2.19130435 184.229379,6.57391304 C188.556828,10.9565217 190.720552,16.2608696 190.720552,22.4956522 C190.720552,28.6521739 188.574207,33.8956522 184.290207,38.2347826 C180.014897,42.573913 174.888,44.7391304 168.926897,44.7391304 C162.80069,44.7391304 157.569517,42.5304348 153.250759,38.1043478 C148.92331,33.6869565 146.759586,28.3130435 146.759586,21.9913043 C146.759586,15.9217391 148.905931,10.7391304 153.181241,6.44347826 C157.465241,2.14782609 162.635586,0 168.674897,0 L168.674897,0 Z" id="Fill-3" fill="#000000" mask="url(#mask-2)"></path>
            <path d="M217.241379,56.6234783 L251.721931,56.6234783 L251.721931,70.7191304 C259.542621,64.1191304 266.62469,59.5365217 272.976828,56.953913 C279.320276,54.3713043 285.820138,53.0843478 292.459034,53.0843478 C306.075724,53.0843478 317.641655,57.8495652 327.139448,67.3626087 C335.133931,75.4582609 339.122483,87.4234783 339.122483,103.258261 L339.122483,194.136522 L305.024276,194.136522 L305.024276,133.91913 C305.024276,117.510435 304.285655,106.606087 302.817103,101.223478 C301.348552,95.8321739 298.785103,91.7365217 295.126759,88.9104348 C291.477103,86.0930435 286.958483,84.6843478 281.588276,84.6843478 C274.610483,84.6843478 268.62331,87.0147826 263.626759,91.6930435 C258.630207,96.3626087 255.163034,102.823478 253.233931,111.066957 C252.225931,115.362609 251.721931,124.658261 251.721931,138.971304 L251.721931,194.136522 L217.241379,194.136522 L217.241379,56.6234783 Z" id="Fill-5" fill="#000000" mask="url(#mask-2)"></path>
            <path d="M427.293807,84.9347826 C416.64029,84.9347826 407.785531,88.7086957 400.738221,96.2478261 C393.682221,103.786957 390.16291,113.456522 390.16291,125.256522 C390.16291,137.134783 393.743048,146.908696 400.920703,154.578261 C408.098359,162.247826 416.927048,166.082609 427.424152,166.082609 C438.251462,166.082609 447.227876,162.308696 454.353393,154.769565 C461.4876,147.230435 465.059048,137.343478 465.059048,125.126087 C465.059048,113.16087 461.4876,103.473913 454.353393,96.0565217 C447.227876,88.6478261 438.208014,84.9347826 427.293807,84.9347826 L427.293807,84.9347826 Z M463.547048,56.6217391 L498.0276,56.6217391 L498.0276,194.143478 L463.547048,194.143478 L463.547048,179.604348 C456.812566,186.004348 450.060703,190.621739 443.300152,193.447826 C436.522221,196.265217 429.188152,197.673913 421.280566,197.673913 C403.53629,197.673913 388.181669,190.786957 375.234083,177.013043 C362.277807,163.23913 355.804014,146.108696 355.804014,125.630435 C355.804014,104.395652 362.069255,87.0043478 374.599738,73.4304348 C387.130221,59.8652174 402.354497,53.0826087 420.272566,53.0826087 C428.519048,53.0826087 436.252841,54.6478261 443.482634,57.7608696 C450.712428,60.8826087 457.403462,65.5521739 463.547048,71.7869565 L463.547048,56.6217391 Z" id="Fill-6" fill="#000000" mask="url(#mask-2)"></path>
        </g>
    </g>
</svg>