<svg xmlns="http://www.w3.org/2000/svg" xmlns:xlink="http://www.w3.org/1999/xlink" class="hide"><defs><style>.fill{fill:#00a4de}</style><path id="a" d="M0 197.678h498.022V0H0z"/></defs><symbol id="arrow-left" viewBox="0 0 32 32"><path d="M18.299 6.826c-.669.653-7.203 7.514-7.203 7.514a1.756 1.756 0 0 0 0 2.522s6.534 6.861 7.203 7.512c.669.653 1.872.698 2.586 0 .712-.696.768-1.667-.002-2.52l-5.995-6.253 5.995-6.253c.77-.854.714-1.826.002-2.522-.715-.696-1.918-.653-2.586 0z"/></symbol><symbol id="arrow-right" viewBox="0 0 32 32"><path d="M13.701 6.826c.669.653 7.203 7.514 7.203 7.514a1.754 1.754 0 0 1 0 2.522s-6.534 6.861-7.203 7.512c-.669.653-1.87.698-2.586 0-.714-.696-.77-1.667 0-2.52l5.997-6.253-5.995-6.253c-.77-.854-.714-1.826 0-2.522s1.917-.653 2.584 0z"/></symbol><symbol id="arrow-up" viewBox="0 0 32 32"><path d="M24.773 17.899c-.651-.669-7.512-7.203-7.512-7.203a1.751 1.751 0 0 0-2.522 0s-6.861 6.534-7.514 7.203c-.651.669-.696 1.872 0 2.586.698.712 1.669.77 2.522 0L16 14.49l6.251 5.995c.854.77 1.827.712 2.522 0 .698-.715.654-1.918 0-2.586z"/></symbol><symbol id="facebook" viewBox="0 0 96.124 96.123"><path d="M72.089.02L59.624 0C45.62 0 36.57 9.285 36.57 23.656v10.907H24.037a1.96 1.96 0 0 0-1.96 1.961v15.803a1.96 1.96 0 0 0 1.96 1.96H36.57v39.876a1.96 1.96 0 0 0 1.96 1.96h16.352a1.96 1.96 0 0 0 1.96-1.96V54.287h14.654a1.96 1.96 0 0 0 1.96-1.96l.006-15.803a1.963 1.963 0 0 0-1.961-1.961H56.842v-9.246c0-4.444 1.059-6.7 6.848-6.7l8.397-.003a1.96 1.96 0 0 0 1.959-1.96V1.98A1.96 1.96 0 0 0 72.089.02z"/></symbol><symbol id="hatebook" viewBox="0 0 355.004 300"><path class="fill" d="M280.009 0h70v200.005h-70V0zM215.192 160.596c-11.844-13.239-28.314-20.683-49.443-22.288 18.795-5.122 32.443-12.616 41.077-22.628 8.593-9.88 12.856-23.292 12.856-40.171 0-13.362-2.922-25.184-8.579-35.397-5.805-10.152-14.14-18.276-25.102-24.357-9.586-5.274-20.98-8.994-34.262-11.188-13.349-2.126-36.709-3.198-70.231-3.198H0V298.63h83.976c33.737 0 58.064-1.182 72.94-3.441 14.863-2.337 27.334-6.27 37.428-11.662 12.484-6.587 22.007-15.964 28.662-28.01 6.698-12.085 10.014-26.02 10.014-41.956-.003-22.047-5.941-39.763-17.828-52.965zM75.26 67.27h17.398c20.108 0 33.617 2.267 40.59 6.787 6.877 4.542 10.388 12.38 10.388 23.547 0 10.745-3.733 18.313-11.118 22.751-7.483 4.354-21.117 6.562-41.079 6.562H75.26V67.27zm69.016 170.463c-7.916 4.862-21.557 7.251-40.696 7.251H75.265v-64.949h29.54c19.654 0 33.243 2.475 40.469 7.414 7.343 4.942 10.955 13.665 10.955 26.191-.003 11.21-3.966 19.259-11.953 24.093zM315.014 220.003c-22.101 0-40.002 17.891-40.002 39.991S292.914 300 315.014 300c22.072 0 39.99-17.906 39.99-40.006s-17.916-39.991-39.99-39.991z"/></symbol><symbol id="line" viewBox="0 0 296.528 296.528"><path d="M295.838 115.347l.003-.001-.092-.76a.44.44 0 0 0-.008-.068l-.344-2.858-.238-1.974-.072-.594-.147.018c-3.617-20.571-13.553-40.093-28.942-56.762-15.317-16.589-35.217-29.687-57.548-37.878-19.133-7.018-39.434-10.577-60.337-10.577-28.22 0-55.627 6.637-79.257 19.193C23.289 47.297-3.585 91.799.387 136.461c2.056 23.111 11.11 45.11 26.184 63.621 14.188 17.423 33.381 31.483 55.503 40.66 13.602 5.642 27.051 8.301 41.291 11.116l1.667.33c3.921.776 4.975 1.842 5.247 2.264.503.784.24 2.329.038 3.18-.186.785-.378 1.568-.57 2.352-1.529 6.235-3.11 12.683-1.868 19.792 1.428 8.172 6.531 12.859 14.001 12.86h.002c8.035 0 17.18-5.39 23.231-8.956l.808-.475c14.436-8.478 28.036-18.041 38.271-25.425 22.397-16.159 47.783-34.475 66.815-58.17 19.165-23.865 28.193-54.532 24.831-84.263zM92.343 160.561H66.761a7 7 0 0 1-7-7V99.865a7 7 0 1 1 14 0v46.696h18.581a7 7 0 0 1 .001 14zm26.687-7.19a7 7 0 1 1-14 0V99.675a7 7 0 1 1 14 0v53.696zm63.274 0a7 7 0 0 1-12.665 4.113l-25.207-34.717v30.605a7 7 0 1 1-14 0v-52.16a7 7 0 0 1 12.665-4.113l25.207 34.717V99.675a7 7 0 1 1 14 0v53.696zm51.007 5.898h-34.645a7 7 0 0 1-7-7V98.573a7 7 0 0 1 7-7h33.57a7 7 0 1 1 0 14h-26.57v12.849h21.562a7 7 0 1 1 0 14h-21.562v12.847h27.645a7 7 0 1 1 0 14z"/></symbol><symbol id="logo" viewBox="0 0 499 198"><title>Page 1</title><g fill-rule="evenodd"><path d="M0 56.623h34.48V70.72c7.821-6.6 14.903-11.182 21.255-13.765 6.344-2.583 12.844-3.87 19.483-3.87 13.616 0 25.182 4.766 34.68 14.279 7.995 8.095 11.983 20.06 11.983 35.895v90.879H87.783v-60.218c0-16.409-.739-27.313-2.207-32.696-1.469-5.39-4.032-9.486-7.69-12.313-3.65-2.817-8.169-4.226-13.54-4.226-6.977 0-12.955 2.33-17.96 7.009-4.997 4.67-8.464 11.13-10.393 19.374-1.008 4.296-1.512 13.591-1.512 27.904v55.166H0V56.623z"/><mask id="b"><use xlink:href="#a"/></mask><path d="M151.435 194.14h34.48V56.625h-34.48V194.14zM168.675 0c6.048 0 11.227 2.191 15.554 6.574 4.328 4.383 6.492 9.687 6.492 15.922 0 6.156-2.147 11.4-6.43 15.739-4.276 4.339-9.403 6.504-15.364 6.504-6.126 0-11.357-2.209-15.676-6.635-4.328-4.417-6.491-9.791-6.491-16.113 0-6.07 2.146-11.252 6.421-15.548C157.465 2.148 162.636 0 168.675 0zM217.241 56.623h34.48V70.72c7.822-6.6 14.904-11.182 21.256-13.765 6.343-2.583 12.843-3.87 19.482-3.87 13.617 0 25.183 4.766 34.68 14.279 7.995 8.095 11.983 20.06 11.983 35.895v90.879h-34.098v-60.218c0-16.409-.738-27.313-2.207-32.696-1.468-5.39-4.032-9.486-7.69-12.313-3.65-2.817-8.169-4.226-13.539-4.226-6.978 0-12.965 2.33-17.961 7.009-4.997 4.67-8.464 11.13-10.393 19.374-1.008 4.296-1.512 13.591-1.512 27.904v55.166h-34.48V56.623zM427.294 84.935c-10.654 0-19.508 3.774-26.556 11.313-7.056 7.539-10.575 17.209-10.575 29.009 0 11.878 3.58 21.652 10.758 29.321 7.177 7.67 16.006 11.505 26.503 11.505 10.827 0 19.804-3.774 26.93-11.313 7.134-7.54 10.705-17.427 10.705-29.644 0-11.965-3.571-21.652-10.706-29.07-7.125-7.408-16.145-11.121-27.06-11.121zm36.253-28.313h34.48v137.521h-34.48v-14.539c-6.734 6.4-13.486 11.018-20.247 13.844-6.778 2.817-14.112 4.226-22.02 4.226-17.744 0-33.098-6.887-46.046-20.661-12.956-13.774-19.43-30.904-19.43-51.383 0-21.234 6.265-38.626 18.796-52.2 12.53-13.565 27.754-20.347 45.673-20.347 8.246 0 15.98 1.565 23.21 4.678 7.23 3.122 13.92 7.791 20.064 14.026V56.622z" mask="url(#b)"/></g></symbol><symbol id="twitter" viewBox="0 0 512.002 512.002"><path d="M512.002 97.211c-18.84 8.354-39.082 14.001-60.33 16.54 21.686-13 38.342-33.585 46.186-58.115a210.29 210.29 0 0 1-66.705 25.49c-19.16-20.415-46.461-33.17-76.674-33.17-58.011 0-105.042 47.029-105.042 105.039 0 8.233.929 16.25 2.72 23.939-87.3-4.382-164.701-46.2-216.509-109.753-9.042 15.514-14.223 33.558-14.223 52.809 0 36.444 18.544 68.596 46.73 87.433a104.614 104.614 0 0 1-47.577-13.139c-.01.438-.01.878-.01 1.321 0 50.894 36.209 93.348 84.261 103a105.245 105.245 0 0 1-27.674 3.687c-6.769 0-13.349-.66-19.764-1.888 13.368 41.73 52.16 72.104 98.126 72.949-35.95 28.176-81.243 44.967-130.458 44.967-8.479 0-16.84-.496-25.058-1.471 46.486 29.807 101.701 47.197 161.021 47.197 193.211 0 298.868-160.062 298.868-298.872 0-4.554-.104-9.084-.305-13.59 20.526-14.809 38.335-33.309 52.417-54.373z"/></symbol></svg>